# xmcd CD database file
#
# Track frame offsets:
#	150
#	10670
#	23160
#	34637
#	44142
#	56067
#	64405
#	72310
#	83130
#	94620
#
# Disc length: 1392 seconds
#
# Revision: 1
# Processed by: cddbd v1.5.2PL0 Copyright (c) Steve Scherf et al.
# Submitted via: jetAudio 7
#
DISCID=82056e0a
DTITLE=Floyd Cramer - All American Country
DYEAR=2005
DGENRE=Instrumental
TTITLE0=San Antonio Rose
TTITLE1=Sweet Dreams
TTITLE2=I Can't Stop Loving You
TTITLE3=Lovesick Blues
TTITLE4=You Win Again
TTITLE5=Tennessee Waltz
TTITLE6=Faded Love
TTITLE7=Green, Green Grass Of Home
TTITLE8=The Three Bells
TTITLE9=Let It Be Me
EXTD=
EXTT0=
EXTT1=
EXTT2=
EXTT3=
EXTT4=
EXTT5=
EXTT6=
EXTT7=
EXTT8=
EXTT9=
PLAYORDER=
